HIERARCHY
ROOT Hips
{
	OFFSET 0 0 0
	CHANNELS 6 Xposition Yposition Zposition Yrotation Xrotation Zrotation
	JOINT Spine
	{
		OFFSET -0 8.38078 -2.67137
		CHANNELS 3 Yrotation Xrotation Zrotation
		JOINT Spine1
		{
			OFFSET -0 10.2701 0
			CHANNELS 3 Yrotation Xrotation Zrotation
			JOINT Spine2
			{
				OFFSET -0 10.2701 0
				CHANNELS 3 Yrotation Xrotation Zrotation
				JOINT Spine3
				{
					OFFSET -0 10.2701 0
					CHANNELS 3 Yrotation Xrotation Zrotation
					JOINT Neck
					{
						OFFSET -0 16.9472 3.67137
						CHANNELS 3 Yrotation Xrotation Zrotation
						JOINT Head
						{
							OFFSET -0 10.476 0
							CHANNELS 3 Yrotation Xrotation Zrotation
							End Site
							{
								OFFSET -0 15 0
							}
						}
					}
					JOINT LeftShoulder
					{
						OFFSET 1.74599 4.87741 3.49199
						CHANNELS 3 Yrotation Xrotation Zrotation
						JOINT LeftArm
						{
							OFFSET 19.9293 0 0
							CHANNELS 3 Yrotation Xrotation Zrotation
							JOINT LeftForeArm
							{
								OFFSET 25.2203 0 0
								CHANNELS 3 Yrotation Xrotation Zrotation
								JOINT LeftHand
								{
									OFFSET 22.6882 0 0
									CHANNELS 3 Yrotation Xrotation Zrotation
									End Site
									{
										OFFSET 15 0 0
									}
								}
							}
						}
					}
					JOINT RightShoulder
					{
						OFFSET -1.74599 4.87741 3.49199
						CHANNELS 3 Yrotation Xrotation Zrotation
						JOINT RightArm
						{
							OFFSET -19.9293 0 0
							CHANNELS 3 Yrotation Xrotation Zrotation
							JOINT RightForeArm
							{
								OFFSET -25.2203 0 0
								CHANNELS 3 Yrotation Xrotation Zrotation
								JOINT RightHand
								{
									OFFSET -22.6882 0 0
									CHANNELS 3 Yrotation Xrotation Zrotation
									End Site
									{
										OFFSET -15 0 0
									}
								}
							}
						}
					}
				}
			}
		}
	}
	JOINT LeftUpLeg
	{
		OFFSET 10.476 -3.49199 2
		CHANNELS 3 Yrotation Xrotation Zrotation
		JOINT LeftLeg
		{
			OFFSET -0 -42.329 2.44439
			CHANNELS 3 Yrotation Xrotation Zrotation
			JOINT LeftFoot
			{
				OFFSET -0 -39.8175 -2.44439
				CHANNELS 3 Yrotation Xrotation Zrotation
				JOINT LeftToeBase
				{
					OFFSET -0 -6.74129 15.714
					CHANNELS 3 Yrotation Xrotation Zrotation
					End Site
					{
						OFFSET -0 0 5
					}
				}
			}
		}
	}
	JOINT RightUpLeg
	{
		OFFSET -10.476 -3.49199 2
		CHANNELS 3 Yrotation Xrotation Zrotation
		JOINT RightLeg
		{
			OFFSET -0 -42.329 2.44439
			CHANNELS 3 Yrotation Xrotation Zrotation
			JOINT RightFoot
			{
				OFFSET -0 -39.8175 -2.44439
				CHANNELS 3 Yrotation Xrotation Zrotation
				JOINT RightToeBase
				{
					OFFSET -0 -6.74129 15.714
					CHANNELS 3 Yrotation Xrotation Zrotation
					End Site
					{
						OFFSET -0 0 5
					}
				}
			}
		}
	}
}
MOTION
Frames: 17
Frame Time: 0.00833333
-98.579187 94.131177 571.403906 86.255627 -4.057435 0.964926 0.225896 1.538971 -0.208572 0.140295 1.781896 -0.238053 0.027330 1.809967 -0.158662 -0.049467 1.867076 -0.016666 0.192771 6.153668 -2.174851 0.342190 7.424954 0.575158 15.922748 9.017131 -1.810455 -44.365917 -4.540531 -70.349000 -12.925771 6.248440 10.743326 5.438332 -9.773593 -3.932014 -12.715902 7.710390 4.417439 33.013565 -2.293219 72.242768 16.344713 6.911295 -11.648863 -8.243780 -8.691323 5.233618 9.596763 10.474868 2.667462 0.000000 -1.279527 0.000000 7.635650 1.525835 -0.052514 0.000000 -12.536221 0.000000 -10.999280 9.501808 -5.201065 0.000000 0.287873 0.000000 -6.697006 -1.339987 -2.343132 0.000000 -1.691100 0.000000
-98.581683 94.132434 571.404980 86.249727 -4.057850 0.964698 0.217840 1.546653 -0.218664 0.131701 1.781635 -0.243544 0.027300 1.809468 -0.159384 -0.049238 1.870910 -0.016290 0.209245 6.193063 -2.153200 0.346582 7.430026 0.562795 15.918441 9.015439 -1.801378 -44.381289 -4.527540 -70.338418 -12.928262 6.232128 10.743535 5.421788 -9.782207 -3.931775 -12.714952 7.714095 4.417417 32.999845 -2.294764 72.246103 16.309478 6.900993 -11.633305 -8.241795 -8.656272 5.247436 9.600735 10.474506 2.669068 0.000000 -1.281520 0.000000 7.636247 1.535474 -0.052637 0.000000 -12.539909 0.000000 -10.998662 9.500984 -5.201998 0.000000 0.285738 0.000000 -6.698409 -1.328145 -2.329099 0.000000 -1.645393 0.000000
-98.584283 94.134424 571.407080 86.242198 -4.058592 0.963002 0.215561 1.553533 -0.226573 0.128768 1.783426 -0.246306 0.020259 1.808783 -0.159846 -0.054712 1.878769 -0.020100 0.220641 6.213984 -2.141885 0.349884 7.449259 0.551399 15.918154 9.014047 -1.799010 -44.359789 -4.516639 -70.319534 -12.958396 6.229534 10.735067 5.430804 -9.759136 -3.924952 -12.712185 7.710435 4.411114 32.802546 -2.409661 72.269449 16.213968 6.890458 -11.584880 -8.160717 -8.553394 5.324401 9.607056 10.473919 2.672622 0.000000 -1.283352 0.000000 7.637971 1.542730 -0.050651 0.000000 -12.536731 0.000000 -11.000571 9.499451 -5.200765 0.000000 0.286776 0.000000 -6.682645 -1.326490 -2.370911 0.000000 -1.641951 0.000000
-98.588104 94.136688 571.408057 86.231682 -4.059554 0.957569 0.211149 1.566658 -0.231453 0.123233 1.778608 -0.248922 0.016533 1.815285 -0.157182 -0.056761 1.874814 -0.023053 0.249895 6.217364 -2.128052 0.359606 7.495556 0.527634 15.914312 9.005280 -1.799669 -44.353739 -4.493667 -70.315143 -12.968789 6.241212 10.744945 5.435847 -9.757183 -3.925547 -12.707002 7.712843 4.410418 32.825158 -2.390253 72.275020 16.190690 6.861709 -11.583552 -8.178866 -8.550900 5.318229 9.610164 10.475456 2.677503 0.000000 -1.288508 0.000000 7.651866 1.547637 -0.044612 0.000000 -12.525104 0.000000 -11.006146 9.495543 -5.197009 0.000000 0.286383 0.000000 -6.663615 -1.307796 -2.311140 0.000000 -1.656611 0.000000
-98.590540 94.137250 571.410254 86.219955 -4.059914 0.957359 0.211073 1.580850 -0.240639 0.121965 1.772629 -0.253154 0.016356 1.809850 -0.158929 -0.056460 1.878745 -0.022649 0.260451 6.240563 -2.119128 0.363659 7.510881 0.524559 15.910300 9.005102 -1.788765 -44.359860 -4.489979 -70.301748 -12.967886 6.218496 10.736842 5.437609 -9.717219 -3.929481 -12.720575 7.722354 4.415478 33.023523 -2.265801 72.267920 16.224929 6.830682 -11.641150 -8.193121 -8.758753 5.346762 9.619807 10.475903 2.680786 0.000000 -1.290588 0.000000 7.654202 1.556367 -0.055459 0.000000 -12.526733 0.000000 -11.006282 9.494139 -5.194656 0.000000 0.282283 0.000000 -6.653458 -1.300088 -2.322858 0.000000 -1.665226 0.000000
-98.589142 94.135205 571.406006 86.201369 -4.059533 0.966376 0.215616 1.572122 -0.241929 0.126366 1.781418 -0.258850 0.013971 1.814116 -0.172378 -0.058635 1.882395 -0.030947 0.255545 6.283421 -2.113148 0.363384 7.492959 0.543363 15.913216 9.007341 -1.771072 -44.372657 -4.500529 -70.279709 -12.947616 6.254544 10.719536 5.433818 -9.753867 -3.904616 -12.726856 7.731819 4.415093 33.010112 -2.266109 72.277979 16.207438 6.845980 -11.640953 -8.192966 -8.782956 5.389438 9.652535 10.475721 2.673539 0.000000 -1.280882 0.000000 7.640745 1.547016 -0.055828 0.000000 -12.518171 0.000000 -10.996120 9.496557 -5.201957 0.000000 0.267013 0.000000 -6.661083 -1.305267 -2.351987 0.000000 -1.658554 0.000000
-98.590625 94.136450 571.406494 86.191600 -4.060173 0.962297 0.194053 1.636369 -0.274173 0.099657 1.716558 -0.259081 0.031239 1.788565 -0.121589 -0.030513 1.899574 -0.038639 0.259950 6.320904 -2.141029 0.370698 7.504667 0.561426 15.921063 9.022528 -1.791578 -44.390973 -4.486265 -70.265627 -12.958464 6.273699 10.703327 5.509056 -9.666937 -3.844695 -12.732456 7.744588 4.405962 32.990013 -2.233957 72.261004 16.230045 6.871021 -11.594522 -8.290314 -8.661228 5.289094 9.657425 10.477524 2.678467 0.000000 -1.285728 0.000000 7.646057 1.555869 -0.056924 0.000000 -12.521897 0.000000 -11.006198 9.493828 -5.201417 0.000000 0.270564 0.000000 -6.631517 -1.305505 -2.386835 0.000000 -1.641796 0.000000
-98.592090 94.137439 571.405762 86.174074 -4.059148 0.970230 0.199081 1.608628 -0.280459 0.106316 1.758662 -0.266160 0.026758 1.797796 -0.130988 -0.035265 1.881109 -0.042318 0.267165 6.346382 -2.134276 0.373618 7.503015 0.562340 15.920032 9.028024 -1.782658 -44.364457 -4.496483 -70.250572 -12.953895 6.287192 10.700835 5.508071 -9.650516 -3.830574 -12.737238 7.744130 4.412288 32.985916 -2.217088 72.274954 16.192836 6.881076 -11.642904 -8.228659 -8.791746 5.450317 9.686497 10.474837 2.675095 0.000000 -1.282384 0.000000 7.624400 1.565389 -0.060065 0.000000 -12.552252 0.000000 -10.986954 9.498102 -5.205840 0.000000 0.250957 0.000000 -6.641637 -1.295057 -2.349017 0.000000 -1.644169 0.000000
-98.596332 94.138855 571.406592 86.163252 -4.060897 0.968796 0.220636 1.558778 -0.258253 0.131604 1.830544 -0.272181 0.013649 1.818901 -0.183544 -0.057032 1.866472 -0.038944 0.275909 6.348423 -2.101957 0.374403 7.501036 0.561565 15.902508 9.006820 -1.754827 -44.325704 -4.516551 -70.239357 -12.933573 6.292334 10.712601 5.445354 -9.733845 -3.899754 -12.748105 7.730127 4.438374 32.780914 -2.327540 72.288271 16.108080 6.914297 -11.572097 -8.165148 -8.635932 5.437065 9.680946 10.475625 2.676287 0.000000 -1.283183 0.000000 7.642060 1.575691 -0.063677 0.000000 -12.543220 0.000000 -10.987896 9.496135 -5.204438 0.000000 0.248162 0.000000 -6.630138 -1.289818 -2.346547 0.000000 -1.635669 0.000000
-98.598260 94.140100 571.404785 86.151519 -4.063238 0.963351 0.221816 1.579282 -0.253303 0.130780 1.804384 -0.274025 0.013966 1.827852 -0.186926 -0.055877 1.877930 -0.045645 0.291831 6.360323 -2.094513 0.379267 7.500081 0.549228 15.903653 9.003723 -1.756090 -44.339300 -4.513639 -70.222226 -12.932360 6.261172 10.723176 5.429652 -9.714279 -3.907625 -12.753252 7.726869 4.439304 32.779633 -2.317646 72.294110 16.091592 6.914864 -11.577939 -8.163672 -8.655941 5.463955 9.690299 10.475932 2.681355 0.000000 -1.279609 0.000000 7.646760 1.573615 -0.063371 0.000000 -12.536381 0.000000 -10.992888 9.492994 -5.202717 0.000000 0.254827 0.000000 -6.606450 -1.287391 -2.391419 0.000000 -1.638443 0.000000
-98.600745 94.140302 571.403564 86.135079 -4.064134 0.960512 0.224667 1.592636 -0.257548 0.132113 1.793940 -0.274481 0.013804 1.827079 -0.183004 -0.054179 1.885710 -0.051180 0.306082 6.375905 -2.089739 0.383794 7.493525 0.538820 15.898456 9.003514 -1.755424 -44.313542 -4.520612 -70.215960 -12.927129 6.278097 10.724591 5.443426 -9.757235 -3.902317 -12.754261 7.723111 4.438765 32.772180 -2.301441 72.297519 16.081851 6.917314 -11.570111 -8.153916 -8.655152 5.428138 9.688313 10.477606 2.682519 0.000000 -1.278273 0.000000 7.663579 1.564034 -0.069779 0.000000 -12.532555 0.000000 -10.981935 9.491843 -5.198289 0.000000 0.251858 0.000000 -6.588198 -1.288418 -2.395597 0.000000 -1.678548 0.000000
-98.601428 94.137909 571.401709 86.120493 -4.064008 0.958316 0.207159 1.636991 -0.285416 0.110611 1.744046 -0.272109 0.025652 1.808366 -0.140647 -0.033795 1.906662 -0.058496 0.328297 6.406326 -2.110986 0.394738 7.474483 0.534638 15.911079 9.025458 -1.771230 -44.307502 -4.526076 -70.207391 -12.935284 6.263571 10.736269 5.464447 -9.758625 -3.917541 -12.747618 7.737522 4.412391 32.758184 -2.298068 72.292309 16.082484 6.912242 -11.552380 -8.158763 -8.655792 5.391487 9.704626 10.479473 2.681899 0.000000 -1.277282 0.000000 7.671566 1.547724 -0.050630 0.000000 -12.504530 0.000000 -10.984561 9.490098 -5.197689 0.000000 0.245682 0.000000 -6.590915 -1.280460 -2.352650 0.000000 -1.645160 0.000000
-98.603418 94.138275 571.400000 86.102470 -4.065209 0.953801 0.210415 1.616120 -0.281983 0.115438 1.784290 -0.272141 0.023680 1.808060 -0.145438 -0.035591 1.901536 -0.063327 0.345626 6.408684 -2.111903 0.402153 7.478855 0.532203 15.915968 9.020586 -1.774130 -44.277248 -4.533249 -70.193229 -12.943502 6.282669 10.728281 5.433119 -9.782088 -3.896179 -12.749506 7.737410 4.413081 32.739981 -2.298211 72.290999 16.083524 6.911059 -11.538233 -8.166836 -8.624260 5.368468 9.698343 10.481197 2.683172 0.000000 -1.276136 0.000000 7.696966 1.544831 -0.050936 0.000000 -12.497567 0.000000 -10.968547 9.490638 -5.193745 0.000000 0.244958 0.000000 -6.579635 -1.274842 -2.398307 0.000000 -1.642880 0.000000
-98.607996 94.138672 571.399023 86.079788 -4.067441 0.954655 0.236743 1.565559 -0.253105 0.145475 1.854864 -0.275980 0.011511 1.832655 -0.203759 -0.057633 1.884523 -0.064171 0.360744 6.402253 -2.080047 0.406868 7.499522 0.537358 15.899832 9.004597 -1.747447 -44.258514 -4.536581 -70.180938 -12.958800 6.271561 10.729407 5.435304 -9.786754 -3.885126 -12.758950 7.739539 4.438740 32.763971 -2.304780 72.297495 16.062658 6.891534 -11.560482 -8.165284 -8.627533 5.364754 9.711673 10.481614 2.682290 0.000000 -1.272899 0.000000 7.716973 1.552536 -0.048291 0.000000 -12.458059 0.000000 -10.953096 9.488957 -5.192574 0.000000 0.237066 0.000000 -6.580100 -1.264383 -2.354830 0.000000 -1.652675 0.000000
-98.611133 94.138922 571.397754 86.059367 -4.069798 0.952127 0.241044 1.591449 -0.254329 0.147472 1.828563 -0.278127 0.010977 1.835546 -0.200961 -0.057313 1.897288 -0.067797 0.378582 6.405822 -2.084688 0.414127 7.486266 0.532301 15.909083 8.997711 -1.749282 -44.242301 -4.535960 -70.177754 -12.963183 6.286882 10.737450 5.431758 -9.771249 -3.909292 -12.763887 7.747566 4.439424 32.973067 -2.188017 72.286637 16.115058 6.860554 -11.639011 -8.203851 -8.811147 5.389761 9.708884 10.483843 2.681994 0.000000 -1.270201 0.000000 7.738486 1.550522 -0.039274 0.000000 -12.443329 0.000000 -10.943841 9.486638 -5.189605 0.000000 0.237387 0.000000 -6.555136 -1.265389 -2.356196 0.000000 -1.682088 0.000000
-98.613812 94.139478 571.394678 86.039637 -4.071524 0.945738 0.243918 1.605546 -0.248263 0.148915 1.818435 -0.274950 0.015537 1.835219 -0.200471 -0.051733 1.902374 -0.076015 0.381962 6.421497 -2.098919 0.415740 7.434608 0.531273 15.904994 8.999938 -1.754385 -44.222462 -4.534286 -70.169018 -12.975956 6.295552 10.737875 5.437897 -9.757780 -3.906221 -12.773365 7.747816 4.432689 32.974110 -2.186019 72.288664 16.104780 6.864770 -11.638852 -8.205396 -8.810163 5.382567 9.705307 10.487536 2.684538 0.000000 -1.271326 0.000000 7.763164 1.546658 -0.040716 0.000000 -12.429433 0.000000 -10.939530 9.483258 -5.187131 0.000000 0.242350 0.000000 -6.528493 -1.264806 -2.400854 0.000000 -1.673859 0.000000
-98.618188 94.141333 571.394141 86.015334 -4.073843 0.950484 0.260389 1.609077 -0.249776 0.164787 1.832853 -0.277453 0.010258 1.826566 -0.211540 -0.057982 1.909195 -0.081107 0.394653 6.422932 -2.086121 0.418217 7.421220 0.518133 15.896992 9.005177 -1.756199 -44.176127 -4.540006 -70.151933 -12.994153 6.352372 10.735335 5.443179 -9.763401 -3.887274 -12.782302 7.738515 4.442222 32.780948 -2.289344 72.294343 16.050142 6.888559 -11.573126 -8.161934 -8.629692 5.371346 9.710521 10.486459 2.682068 0.000000 -1.264548 0.000000 7.770065 1.562410 -0.050629 0.000000 -12.454615 0.000000 -10.924045 9.482408 -5.191143 0.000000 0.234578 0.000000 -6.531341 -1.249670 -2.398245 0.000000 -1.630307 0.000000
